<?xml version="1.0" encoding="UTF-8"?>
<svg version="1.1" xmlns="http://www.w3.org/2000/svg" width="1024" height="1024">
<path d="M0 0 C337.92 0 675.84 0 1024 0 C1024 337.92 1024 675.84 1024 1024 C686.08 1024 348.16 1024 0 1024 C0 686.08 0 348.16 0 0 Z " fill="#A6A6A6" transform="translate(0,0)"/>
<path d="M0 0 C2.71853007 0.0134122 5.43689589 0.00816002 8.15544415 0.00314331 C27.66952745 -0.02418717 47.06246897 0.44559529 66.22875977 4.4475708 C67.25356445 4.65929932 68.27836914 4.87102783 69.33422852 5.08917236 C88.04985636 9.1264331 105.51537185 14.58482266 122.04125977 24.3225708 C123.3702582 24.99783771 124.70266794 25.66652648 126.04125977 26.3225708 C126.15865425 42.43999623 126.24652001 58.55728055 126.30032063 74.67503166 C126.32597787 82.16071844 126.36088556 89.64613783 126.41845703 97.13165283 C126.46867867 103.66471245 126.50064116 110.19757821 126.51170224 116.73082554 C126.51815643 120.18237608 126.53305506 123.63337261 126.56991005 127.0847435 C126.82059519 153.50879008 123.36322453 175.51019776 104.43554688 195.12017822 C86.58078666 212.93264529 62.52062801 224.7246591 41.02026367 237.5413208 C38.10886002 239.28215026 35.20467093 241.03436034 32.30297852 242.7913208 C31.40224609 243.33570801 30.50151367 243.88009521 29.57348633 244.440979 C27.90872371 245.44769987 26.245199 246.45647228 24.58325195 247.46783447 C21.02056182 249.61750854 17.43470901 251.70875953 13.75610352 253.65460205 C13.14500732 253.97791504 12.53391113 254.30122803 11.90429688 254.63433838 C5.90626275 256.85009755 -0.496851 253.9385351 -6.06762695 251.65655518 C-11.72181009 249.04766676 -17.0019832 245.77556075 -22.33374023 242.5725708 C-24.90986718 241.03924918 -27.48898699 239.51099352 -30.06811523 237.98272705 C-30.72184113 237.59450272 -31.37556702 237.20627838 -32.04910278 236.80628967 C-38.25798831 233.12639949 -44.53127273 229.5648344 -50.81362915 226.01239014 C-78.98540749 210.06021718 -103.98707566 194.51483158 -113.38028717 161.52823544 C-115.510141 153.40701774 -116.31247192 145.6069237 -116.49975586 137.22271729 C-116.53228958 136.05553162 -116.5648233 134.88834595 -116.5983429 133.68579102 C-116.88179302 123.00513246 -117.07565541 112.32141067 -117.23952484 101.63824368 C-117.36129186 93.75902925 -117.52976797 85.88379104 -117.76016283 78.00698608 C-117.91889969 72.44365797 -118.02331714 66.88085495 -118.08828688 61.31565148 C-118.12848932 58.00044798 -118.19938015 54.69075317 -118.31489563 51.37719536 C-118.98812327 31.29432169 -118.98812327 31.29432169 -115.61849976 26.35997391 C-111.90913871 22.79640424 -107.72322512 21.09537369 -102.95874023 19.3225708 C-100.98774417 18.26245049 -99.02671613 17.18321261 -97.08374023 16.0725708 C-86.10686912 10.8502848 -74.62177267 8.10597835 -62.77124023 5.6975708 C-61.81773682 5.50348633 -60.8642334 5.30940186 -59.88183594 5.10943604 C-56.580948 4.46849483 -53.27285836 3.89126174 -49.95874023 3.3225708 C-49.26085388 3.19375519 -48.56296753 3.06493958 -47.84393311 2.93222046 C-31.92694448 0.03420341 -16.13125361 -0.10768978 0 0 Z " fill="#29292A" transform="translate(506.958740234375,275.67742919921875)"/>
<path d="M0 0 C1.17030762 0.35457275 1.17030762 0.35457275 2.36425781 0.71630859 C8.94047327 2.71867401 15.47777123 4.82862015 22 7 C22.80888672 7.26796387 23.61777344 7.53592773 24.45117188 7.81201172 C38.87152855 12.65834678 52.41612958 19.19123745 66 26 C67.51062012 26.75337646 67.51062012 26.75337646 69.05175781 27.52197266 C81.74043431 33.88290283 93.86424451 40.79459878 105.74804688 48.55078125 C108.05720533 50.03681384 110.38953112 51.47726999 112.734375 52.90625 C113.48468994 53.36499512 114.23500488 53.82374023 115.00805664 54.29638672 C116.42867314 55.16241058 117.85221548 56.02365859 119.27905273 56.87939453 C120.886636 57.86634303 122.44911844 58.92614821 124 60 C124 60.66 124 61.32 124 62 C124.72316406 62.26039063 125.44632813 62.52078125 126.19140625 62.7890625 C134.0740557 66.18770134 140.87844244 72.59074526 147.4375 78.0625 C148.02845459 78.54444824 148.61940918 79.02639648 149.22827148 79.52294922 C154.35757293 83.8834062 157.63545487 87.94152816 158.4609375 94.8671875 C158.45648887 96.20342468 158.42724505 97.53977716 158.375 98.875 C158.35848389 99.57898926 158.34196777 100.28297852 158.32495117 101.00830078 C157.98739139 111.06549434 155.79508719 121.65485063 148.25 128.9375 C147.5075 129.618125 146.765 130.29875 146 131 C145.67 131.99 145.34 132.98 145 134 C143.33784732 135.33895632 141.67036393 136.67130142 140 138 C138.88625 139.39605469 138.88625 139.39605469 137.75 140.8203125 C134.98088162 144.20141633 131.83212179 146.59377341 128.25 149.0625 C127.63310303 149.4958667 127.01620605 149.9292334 126.38061523 150.37573242 C122.37551073 153.15340712 118.29571496 155.64152586 113.9765625 157.90625 C110.78372153 159.67303947 107.92403703 161.82252562 105 164 C104.34895833 162.30729167 103.69791667 160.61458333 103.046875 158.921875 C99.71669745 152.80826547 94.00860443 151.00998058 87.875 148.5 C86.97523438 148.12230469 86.07546875 147.74460937 85.1484375 147.35546875 C82.43810894 146.22227103 79.72017974 145.10931408 77 144 C76.12408203 143.63648438 75.24816406 143.27296875 74.34570312 142.8984375 C69.53300699 140.92512246 64.80599455 139.26966679 59.75 138 C54.86729433 136.75382521 50.0191436 135.43325697 45.1875 134 C28.16779102 129.10972163 10.72716316 125.62631093 -7 125 C-8.42892578 124.94900146 -8.42892578 124.94900146 -9.88671875 124.89697266 C-32.47216579 124.21954679 -55.12925698 125.99231596 -77 132 C-77.33 132.33 -77.66 132.66 -78 133 C-80.0548187 133.45070893 -82.11783257 133.86416474 -84.18359375 134.26171875 C-91.72448209 135.83866703 -98.82606051 138.16168642 -106.0625 140.8125 C-107.80756836 141.4322168 -107.80756836 141.4322168 -109.58789062 142.06445312 C-128.45266024 147.94643477 -128.45266024 147.94643477 -142 161 C-147.81934701 160.56995392 -151.54217973 158.10444523 -156.25 154.9375 C-157.00216797 154.43943848 -157.75433594 153.94137695 -158.52929688 153.42822266 C-173.31066028 143.53260275 -188.43385644 132.0017746 -193 114 C-193.185625 113.27296875 -193.37125 112.5459375 -193.5625 111.796875 C-194.17860659 107.85819357 -194.18426896 103.98064718 -194.1875 100 C-194.19974609 99.2059375 -194.21199219 98.411875 -194.22460938 97.59375 C-194.23531914 93.30984335 -194.11728516 89.84761821 -192 86 C-190.36395804 84.62926214 -188.69321939 83.29944744 -187 82 C-186.28972656 81.09378906 -185.57945312 80.18757813 -184.84765625 79.25390625 C-181.67841369 75.38429804 -177.83047963 72.71833389 -173.75 69.875 C-172.56071899 69.03304077 -172.56071899 69.03304077 -171.34741211 68.17407227 C-169.70314699 67.01106343 -168.05656419 65.85132462 -166.40771484 64.69482422 C-164.16303361 63.11476164 -161.9326625 61.51689539 -159.70703125 59.91015625 C-143.37995603 48.16264994 -126.42960854 37.85666274 -108.66943359 28.42285156 C-106.12160349 27.06481664 -103.5851572 25.68762944 -101.05078125 24.3046875 C-72.28792508 8.71671439 -32.95065125 -10.11392007 0 0 Z " fill="#282829" transform="translate(531,129)"/>
<path d="M0 0 C3.80810547 4.72802734 3.80810547 4.72802734 5.53515625 7.17578125 C10.09088031 13.54913434 15.47712608 17.73804254 22 22 C22.57290771 22.38534912 23.14581543 22.77069824 23.73608398 23.16772461 C29.27874416 26.79136341 35.10889018 29.46116698 41.1875 32.0625 C42.21343262 32.50295654 43.23936523 32.94341309 44.29638672 33.3972168 C51.43129437 36.41991766 58.48227793 39.08560333 66 41 C66.68513672 41.18868652 67.37027344 41.37737305 68.07617188 41.57177734 C84.54316944 46.09703224 101.0507226 47.98400665 118 50 C118 69.47 118 88.94 118 109 C118.99 109 119.98 109 121 109 C121.26409668 108.41065674 121.52819336 107.82131348 121.80029297 107.21411133 C123.04577052 104.91552851 124.34552214 103.41060483 126.1953125 101.57421875 C126.82493896 100.94596191 127.45456543 100.31770508 128.10327148 99.67041016 C128.77044189 99.0160498 129.4376123 98.36168945 130.125 97.6875 C130.80570557 97.01251465 131.48641113 96.3375293 132.18774414 95.64208984 C136.08171516 91.80443178 140.05476695 88.13042391 144.23828125 84.609375 C147.11078635 81.98526835 149.57576714 79.01038703 152.1171875 76.0703125 C153.74810296 74.27698222 155.36145014 72.75894185 157.25 71.25 C160.02337338 69.14544784 160.02337338 69.14544784 161.875 66.625 C163.78365317 64.26725197 165.6389292 62.51735928 167.9375 60.5625 C170.411352 58.45311975 172.40312369 56.51625157 174.5 54 C177.10947488 50.86863014 179.90195731 48.39580951 183.03515625 45.80859375 C185.11817556 44.00340393 185.11817556 44.00340393 186.87109375 41.48828125 C189.34425334 38.59763417 191.57763538 37.37562319 195 35.75 C196.03125 35.24984375 197.0625 34.7496875 198.125 34.234375 C204.29393193 31.58575749 209.69931926 31.00572086 216.1640625 32.953125 C224.70597738 36.36989095 229.19851091 40.61138073 233 49 C234.17735421 52.5035207 234.30389023 56.00715822 234.4375 59.6875 C234.49808594 60.84636719 234.55867187 62.00523437 234.62109375 63.19921875 C232.96652398 73.32435324 223.89419169 80.51286653 216.87841797 87.40283203 C215.12855717 89.12150623 213.38961658 90.85064249 211.65234375 92.58203125 C210.52145251 93.70374958 209.38996164 94.82486377 208.2578125 95.9453125 C207.49490402 96.70184616 207.49490402 96.70184616 206.71658325 97.47366333 C204.01789962 100.12055048 201.26185546 102.64837666 198.38549805 105.10131836 C193.09606295 109.69304894 188.22138733 114.69949359 183.30460167 119.68136406 C181.53569616 121.4726027 179.76259041 123.25958549 177.98823547 125.04542542 C172.94878481 130.11817257 167.91356672 135.1950604 162.88891602 140.2824707 C159.79993348 143.40943069 156.70340364 146.52875149 153.60215187 149.64354134 C152.43334457 150.82031581 151.26730004 151.99984198 150.10428429 153.18234062 C141.23833451 162.19423055 132.79161571 169.94645041 121 175 C120.67 183.58 120.34 192.16 120 201 C109.8728951 198.74953224 109.8728951 198.74953224 106.7109375 196.93359375 C106.00598145 196.53575684 105.30102539 196.13791992 104.57470703 195.72802734 C103.48585205 195.08921631 103.48585205 195.08921631 102.375 194.4375 C101.58851074 193.98842285 100.80202148 193.5393457 99.99169922 193.07666016 C94.74255586 190.06395134 89.54792299 186.96035 84.37939453 183.81152344 C78.95669504 180.52563412 73.44681501 177.39905139 67.93041992 174.27392578 C38.9376317 157.84791164 12.32213257 142.3538718 2.57967949 108.21407127 C0.6312856 100.77222967 -0.29120136 93.74007307 -0.22705078 86.05224609 C-0.22734283 85.11444305 -0.22763489 84.17664001 -0.22793579 83.2104187 C-0.22655592 80.14799348 -0.21105869 77.08581958 -0.1953125 74.0234375 C-0.19157759 71.8853875 -0.18873288 69.74733578 -0.18673706 67.60928345 C-0.17913828 62.00994048 -0.15952237 56.41070297 -0.1373291 50.81140137 C-0.11678941 45.08652167 -0.10771804 39.36162476 -0.09765625 33.63671875 C-0.07627267 22.4244331 -0.04218251 11.21222535 0 0 Z " fill="#A5A5A5" transform="translate(391,329)"/>
<path d="M0 0 C8.30469782 6.69286058 15.18052923 13.8461354 20.0390625 23.44921875 C20.55082031 24.40054688 21.06257812 25.351875 21.58984375 26.33203125 C31.15064777 45.26384666 33.93491601 69.51757673 27.42578125 89.8671875 C20.01188898 109.01800218 9.998141 124.98773577 -8.9609375 134.44921875 C-9.9509375 135.00609375 -10.9409375 135.56296875 -11.9609375 136.13671875 C-15.86068217 137.84285704 -19.79131815 138.66162398 -23.9609375 139.44921875 C-16.92299799 145.82735143 -10.24003909 146.97954457 -1.01953125 146.734375 C5.81918451 146.09679358 9.27527905 143.3417531 14.0390625 138.44921875 C15.921875 137.63671875 15.921875 137.63671875 18.0390625 137.44921875 C20.08203125 138.48828125 20.08203125 138.48828125 22.2265625 140.07421875 C26.66320891 143.22851221 31.24156047 145.88601436 36.0390625 148.44921875 C35.77200275 151.90278686 35.27173518 153.21855187 32.7734375 155.6953125 C17.14682653 167.16982658 1.87363501 172.37173859 -17.5 170.01953125 C-25.88882364 168.36625944 -32.68440558 164.79608315 -39.9609375 160.44921875 C-39.9609375 159.78921875 -39.9609375 159.12921875 -39.9609375 158.44921875 C-40.6209375 158.44921875 -41.2809375 158.44921875 -41.9609375 158.44921875 C-41.9609375 157.78921875 -41.9609375 157.12921875 -41.9609375 156.44921875 C-42.66605469 156.23265625 -43.37117188 156.01609375 -44.09765625 155.79296875 C-47.65819474 154.12199298 -50.07734009 151.73530606 -52.7734375 148.94921875 C-53.27552734 148.45035156 -53.77761719 147.95148438 -54.29492188 147.4375 C-57.9609375 143.71661884 -57.9609375 143.71661884 -57.9609375 141.44921875 C-58.8684375 141.53171875 -59.7759375 141.61421875 -60.7109375 141.69921875 C-71.27310378 141.63559124 -81.06614072 135.55655368 -89.9609375 130.44921875 C-89.9609375 129.78921875 -89.9609375 129.12921875 -89.9609375 128.44921875 C-91.00314453 128.13404297 -91.00314453 128.13404297 -92.06640625 127.8125 C-95.79443234 126.05665505 -98.41264007 123.5308303 -101.2734375 120.63671875 C-102.13001953 119.7715564 -102.13001953 119.7715564 -103.00390625 118.88891602 C-118.33155257 102.91756056 -124.53180677 82.50766688 -124.37817383 60.76953125 C-123.79768154 39.410345 -115.68687191 21.75495476 -100.9609375 6.44921875 C-99.68089844 5.08990234 -99.68089844 5.08990234 -98.375 3.703125 C-71.74265935 -22.56931915 -28.96531381 -21.16696009 0 0 Z " fill="#29292A" transform="translate(209.9609375,574.55078125)"/>
<path d="M0 0 C2.16708241 1.36956916 4.19552894 2.66260051 6.078125 4.40234375 C6.078125 5.06234375 6.078125 5.72234375 6.078125 6.40234375 C6.7175 6.67046875 7.356875 6.93859375 8.015625 7.21484375 C10.078125 8.40234375 10.078125 8.40234375 11.078125 11.40234375 C12.00431641 11.86060547 12.00431641 11.86060547 12.94921875 12.328125 C18.622731 15.19090641 22.14103085 23.687916 24.078125 29.40234375 C25.96942622 37.99284181 26.38705949 46.38092689 26.328125 55.15234375 C26.33972656 56.90224609 26.33972656 56.90224609 26.3515625 58.6875 C26.33734693 64.96367537 25.95278007 70.40749355 24.078125 76.40234375 C23.81773437 77.25441406 23.55734375 78.10648438 23.2890625 78.984375 C17.45711341 94.54532328 6.04416522 104.97289238 -8.625 111.9921875 C-21.03059106 117.29837041 -35.51756699 117.23335754 -48.2265625 112.6015625 C-55.36476606 109.42557918 -61.40002474 104.92419401 -66.921875 99.40234375 C-66.91965439 100.06411118 -66.91743378 100.7258786 -66.91514587 101.40769958 C-66.89309535 108.26894595 -66.87796938 115.13018232 -66.86694336 121.99145508 C-66.8619013 124.55526132 -66.85506786 127.11906466 -66.84643555 129.68286133 C-66.83436436 133.35889396 -66.82864558 137.03488873 -66.82421875 140.7109375 C-66.81905746 141.86508652 -66.81389618 143.01923553 -66.80857849 144.20835876 C-66.80846519 145.79989525 -66.80846519 145.79989525 -66.80834961 147.42358398 C-66.806129 148.36290268 -66.80390839 149.30222137 -66.80162048 150.27000427 C-66.921875 152.40234375 -66.921875 152.40234375 -67.921875 153.40234375 C-69.77557111 153.4897202 -71.63255041 153.50932528 -73.48828125 153.5 C-74.61298828 153.49677734 -75.73769531 153.49355469 -76.89648438 153.49023438 C-78.08048828 153.48185547 -79.26449219 153.47347656 -80.484375 153.46484375 C-81.67224609 153.46033203 -82.86011719 153.45582031 -84.08398438 153.45117188 C-87.02999726 153.4393405 -89.97591181 153.42285662 -92.921875 153.40234375 C-94.30919431 150.62770514 -94.04463839 148.38342038 -94.04212952 145.2774353 C-94.04350418 143.9704921 -94.04487885 142.66354889 -94.04629517 141.31700134 C-94.04275577 139.86025978 -94.03912096 138.40351845 -94.03540039 136.94677734 C-94.03511845 135.41940818 -94.03527639 133.89203888 -94.0358429 132.3646698 C-94.0361306 128.20995026 -94.0302382 124.05525941 -94.02326894 119.90054655 C-94.01703094 115.56167972 -94.01643125 111.22281228 -94.01524353 106.88394165 C-94.01213154 98.66395588 -94.00391991 90.44398336 -93.99389404 82.22400343 C-93.98272883 72.86742589 -93.97722142 63.51084771 -93.97219861 54.15426517 C-93.9617372 34.90361696 -93.9439396 15.65298191 -93.921875 -3.59765625 C-85.341875 -3.59765625 -76.761875 -3.59765625 -67.921875 -3.59765625 C-67.591875 2.34234375 -67.261875 8.28234375 -66.921875 14.40234375 C-66.096875 13.22671875 -65.271875 12.05109375 -64.421875 10.83984375 C-58.80476206 3.40736409 -52.68777291 -1.41964172 -43.921875 -4.59765625 C-43.03628906 -4.9534375 -42.15070313 -5.30921875 -41.23828125 -5.67578125 C-27.49037026 -9.49734426 -12.31655403 -6.73458636 0 0 Z " fill="#29292A" transform="translate(472.921875,600.59765625)"/>
<path d="M0 0 C1.03543945 0.17934082 2.07087891 0.35868164 3.13769531 0.54345703 C18.8457473 3.29776448 34.44419469 6.49074753 50 10 C49.07338443 11.42992728 48.14131816 12.85632319 47.20703125 14.28125 C46.68858643 15.07595703 46.1701416 15.87066406 45.63598633 16.68945312 C36.53286369 29.54603462 18.73098707 35.75319636 4.24414062 40.29394531 C2.73878069 40.76756378 1.2374232 41.25408242 -0.25976562 41.75292969 C-50.26238338 58.37132287 -106.54463391 55.42569508 -155 35 C-155.65033203 34.73106934 -156.30066406 34.46213867 -156.97070312 34.18505859 C-167.82570476 29.5966595 -177.17826918 22.74207043 -184 13 C-183.4609375 11.09765625 -183.4609375 11.09765625 -182 9 C-179.46610156 8.27127742 -177.21367797 7.79663689 -174.625 7.4375 C-169.76667321 6.69485636 -165.04731561 5.7862992 -160.2890625 4.5390625 C-153.82859315 2.8849499 -147.34933892 1.86257915 -140.75 0.9375 C-138.96142578 0.68154053 -138.96142578 0.68154053 -137.13671875 0.42041016 C-133.75870957 -0.05973397 -130.37948615 -0.53039002 -127 -1 C-125.5468467 -1.20943917 -124.09371652 -1.41903893 -122.640625 -1.62890625 C-82.38032399 -7.11502023 -40.08241501 -6.98048475 0 0 Z " fill="#E5E5E5" transform="translate(580,299)"/>
<path d="M0 0 C1.08796875 0.00499512 2.1759375 0.00999023 3.296875 0.01513672 C16.71657903 0.30435448 28.85984791 3.84117962 38.6796875 13.44921875 C46.76700324 22.25801702 49.02492616 31.62073106 48.91455078 43.32446289 C48.91484283 44.15483063 48.91513489 44.98519836 48.91543579 45.84072876 C48.91405626 48.55148223 48.89856083 51.26195154 48.8828125 53.97265625 C48.87907746 55.86551259 48.87623281 57.75837088 48.87423706 59.65122986 C48.86663926 64.60779253 48.84702425 69.56423603 48.8248291 74.52075195 C48.80428726 79.58868803 48.79521758 84.65664357 48.78515625 89.72460938 C48.76377438 99.64980008 48.72862404 109.57487144 48.6875 119.5 C40.4375 119.5 32.1875 119.5 23.6875 119.5 C23.6875 114.55 23.6875 109.6 23.6875 104.5 C22.0375 106.15 20.3875 107.8 18.6875 109.5 C8.67769949 119.28600416 -3.25418444 123.48652372 -17.25 123.9375 C-28.39262523 123.61808627 -37.1811374 120.92395241 -45.21484375 113.0078125 C-53.23805362 103.41581858 -54.35855384 92.59574898 -53.3125 80.5 C-51.05178076 71.76125567 -46.68161504 64.27152526 -39.23828125 59.04296875 C-20.21141825 48.35045321 2.00379057 50.93173453 22.6875 53.5 C22.37765837 45.49059385 20.6896555 38.9053169 17.6875 31.5 C17.1925 30.015 17.1925 30.015 16.6875 28.5 C4.97448817 23.35305267 -9.58019165 24.18268443 -21.39453125 28.27734375 C-24.94886688 29.76664369 -28.24345792 31.50203402 -31.5078125 33.546875 C-33.3125 34.5 -33.3125 34.5 -36.3125 34.5 C-38.04009362 32.48894974 -39.51531663 30.55348277 -41 28.375 C-41.41572266 27.80523438 -41.83144531 27.23546875 -42.25976562 26.6484375 C-44.90104366 22.83181243 -46.09922967 20.12859292 -45.3125 15.5 C-35.94558863 3.27490722 -14.24864241 -0.08671927 0 0 Z " fill="#29292A" transform="translate(655.3125,593.5)"/>
<path d="M0 0 C7.34526301 5.83502202 10.58398711 13.51489596 12.77734375 22.47265625 C13.03862267 25.40365437 13.03121957 28.31265727 13.00439453 31.25366211 C13.00468658 32.10324493 13.00497864 32.95282776 13.00527954 33.82815552 C13.0038948 36.61471038 12.98837415 39.40099229 12.97265625 42.1875 C12.96892307 44.12805536 12.96607754 46.06861261 12.96408081 48.00917053 C12.95646834 53.10056827 12.93684042 58.19185073 12.91467285 63.28320312 C12.89416292 68.48501018 12.8850681 73.68683598 12.875 78.88867188 C12.8535922 89.08339196 12.81842958 99.27799645 12.77734375 109.47265625 C4.52734375 109.47265625 -3.72265625 109.47265625 -12.22265625 109.47265625 C-12.55265625 105.51265625 -12.88265625 101.55265625 -13.22265625 97.47265625 C-14.62515625 98.66890625 -16.02765625 99.86515625 -17.47265625 101.09765625 C-30.82679248 111.80759741 -42.70987006 113.40421753 -59.22265625 112.47265625 C-68.1455836 111.21017972 -74.81017604 106.69338211 -80.47265625 99.78515625 C-86.74062724 90.72571184 -88.4249274 81.35506938 -87.22265625 70.47265625 C-85.24459936 61.31975393 -81.10226235 54.62631585 -73.21875 49.53125 C-54.82703626 39.5089168 -33.53364506 40.117759 -13.22265625 42.47265625 C-13.54943394 31.55808041 -13.54943394 31.55808041 -17.22265625 21.47265625 C-17.50359131 20.76842529 -17.78452637 20.06419434 -18.07397461 19.33862305 C-19.04053995 17.32258688 -19.04053995 17.32258688 -21.00219727 16.87426758 C-21.71561279 16.83068115 -22.42902832 16.78709473 -23.1640625 16.7421875 C-24.37280029 16.66025146 -24.37280029 16.66025146 -25.60595703 16.57666016 C-26.46946777 16.54233887 -27.33297852 16.50801758 -28.22265625 16.47265625 C-29.0926123 16.42931152 -29.96256836 16.3859668 -30.85888672 16.34130859 C-33.62704877 16.23182196 -36.39005306 16.18899147 -39.16015625 16.16015625 C-40.54750977 16.11665039 -40.54750977 16.11665039 -41.96289062 16.07226562 C-50.38839494 15.9955091 -56.92070759 18.44454645 -64.09765625 22.72265625 C-67.22265625 24.47265625 -67.22265625 24.47265625 -71.22265625 24.47265625 C-73.03213886 22.2587363 -74.49022216 20.20195841 -75.97265625 17.78515625 C-76.58947266 16.84639648 -76.58947266 16.84639648 -77.21875 15.88867188 C-78.91733251 13.19407669 -80.15363229 10.8491023 -80.73046875 7.703125 C-80.22265625 5.47265625 -80.22265625 5.47265625 -78.60546875 3.84765625 C-76.15919466 2.35788379 -73.71658984 0.88178465 -71.22265625 -0.52734375 C-70.45308594 -0.97335937 -69.68351562 -1.419375 -68.890625 -1.87890625 C-47.91388535 -13.21956483 -20.00979993 -13.75014372 0 0 Z " fill="#29292A" transform="translate(338.22265625,603.52734375)"/>
<path d="M0 0 C11.50973982 9.7548207 18.8959233 21.71164825 20.1640625 36.97460938 C21.1242342 54.20969145 17.45472874 70.65045838 6 84.0625 C-3.51690387 93.88874873 -14.85425315 98.05731379 -28.5 98.3125 C-41.9609427 98.34025134 -55.02763527 93.5988883 -65.1875 84.625 C-74.65266824 74.53532582 -79.39511876 60.37439735 -79.25 46.8125 C-79.24105713 45.87849365 -79.23211426 44.9444873 -79.22290039 43.98217773 C-78.95915301 28.25162783 -75.42500962 14.61091118 -64.234375 2.96484375 C-46.21049521 -12.88482677 -19.44393633 -15.18268405 0 0 Z " fill="#A6A6A6" transform="translate(193,594)"/>
<path d="M0 0 C12.08075791 -0.42342196 22.43710414 2.36237898 31.81640625 10.1875 C41.57739327 19.51466538 46.78985284 31.04531818 47.13263226 44.53412151 C47.17585466 48.68362947 47.14760345 52.83103398 47.109375 56.98046875 C47.10376914 58.78078353 47.09950373 60.58110293 47.09651184 62.38142395 C47.08514093 67.08485896 47.0557419 71.78800929 47.0223999 76.49133301 C46.99153043 81.30472973 46.97797068 86.11817313 46.96289062 90.93164062 C46.93086356 100.35040464 46.8781604 109.76888394 46.81640625 119.1875 C38.23640625 119.1875 29.65640625 119.1875 20.81640625 119.1875 C20.80706055 117.1350708 20.79771484 115.0826416 20.78808594 112.96801758 C20.75411222 106.1386533 20.69845232 99.30958473 20.63250351 92.48045826 C20.59322232 88.34543734 20.56094011 84.2106232 20.54541016 80.07543945 C20.53011445 76.07456623 20.49544555 72.07426228 20.44809723 68.07364464 C20.43341503 66.5577156 20.42537292 65.04170523 20.4245224 63.52570534 C20.50691502 47.67484933 20.50691502 47.67484933 13.80316162 33.83235168 C8.28155754 28.73986739 3.28600705 26.72371508 -4.18359375 26.1875 C-5.06917969 26.12175781 -5.95476563 26.05601562 -6.8671875 25.98828125 C-12.56590666 25.75906786 -16.51127989 26.25105169 -21.4296875 29.21484375 C-23.18359375 30.1875 -23.18359375 30.1875 -25.34765625 30.68359375 C-25.95351563 30.84988281 -26.559375 31.01617188 -27.18359375 31.1875 C-27.9081501 32.82982772 -28.5613377 34.50374835 -29.18359375 36.1875 C-30.4157261 38.0236188 -31.7219849 39.78087949 -33.0625 41.5390625 C-35.57136511 45.2280558 -35.3304183 48.80228657 -35.37304688 53.12158203 C-35.38548683 54.17321533 -35.38548683 54.17321533 -35.3981781 55.24609375 C-35.41556139 56.76678348 -35.4307329 58.28749974 -35.44395447 59.80823135 C-35.46498602 62.21157062 -35.49200602 64.61477584 -35.52062988 67.01803589 C-35.59045244 72.98436829 -35.6499578 78.95079555 -35.70965576 84.91723633 C-35.76050493 89.9623275 -35.81529104 95.00734509 -35.87547302 100.05233383 C-35.9021277 102.42607211 -35.92289002 104.79981698 -35.94348145 107.1736145 C-35.96007628 108.61981539 -35.97694739 110.06601314 -35.99414062 111.51220703 C-36.01293274 113.41391159 -36.01293274 113.41391159 -36.03210449 115.35403442 C-36.18359375 118.1875 -36.18359375 118.1875 -37.18359375 119.1875 C-45.76359375 119.1875 -54.34359375 119.1875 -63.18359375 119.1875 C-63.18359375 80.9075 -63.18359375 42.6275 -63.18359375 3.1875 C-54.60359375 3.1875 -46.02359375 3.1875 -37.18359375 3.1875 C-35.12436973 5.24672402 -35.76931796 9.40458124 -35.62109375 12.25 C-35.57791016 13.00861328 -35.53472656 13.76722656 -35.49023438 14.54882812 C-35.38385742 16.42815438 -35.28319441 18.30780244 -35.18359375 20.1875 C-34.31927734 18.82818359 -34.31927734 18.82818359 -33.4375 17.44140625 C-27.11736472 8.31719015 -18.18999735 2.68066798 -7.37109375 0.375 C-4.91494537 0.21427045 -2.4579557 0.14476303 0 0 Z " fill="#29292A" transform="translate(859.18359375,593.8125)"/>
<path d="M0 0 C4.95420476 1.04510608 6.97893753 3.34163798 9.92578125 7.40625 C11.50902882 10.57274513 11.56952361 13.98083194 10.92578125 17.40625 C8.37450322 21.58411108 5.55870505 25.02213039 2.10058594 28.47436523 C1.40209785 29.17570084 1.40209785 29.17570084 0.6894989 29.89120483 C-0.8362881 31.42066658 -2.36910546 32.94285475 -3.90234375 34.46484375 C-4.97641953 35.53772509 -6.05012333 36.61097893 -7.12347412 37.68458557 C-9.36976166 39.92931359 -11.61935199 42.17065851 -13.87158203 44.40942383 C-16.73885738 47.25976186 -19.59955886 50.11658533 -22.45799637 52.97578335 C-24.67465065 55.19216376 -26.89391687 57.40591342 -29.11403656 59.6188221 C-30.16863074 60.67026362 -31.2226463 61.72228585 -32.27603912 62.77493095 C-37.52149518 68.01259233 -42.78630512 73.18190221 -48.43632507 77.98730469 C-50.97537994 80.18694686 -53.2894156 82.56547539 -55.63671875 84.96875 C-58.59569751 87.97718102 -61.56204302 90.91070209 -64.82421875 93.59375 C-68.02193164 96.24328354 -70.63403557 99.24686962 -73.33203125 102.39453125 C-85.0981322 115.98094827 -85.0981322 115.98094827 -93.3671875 117.953125 C-98.70075678 118.28360434 -102.25779079 116.61720198 -106.640625 113.6953125 C-107.11371094 113.26992188 -107.58679688 112.84453125 -108.07421875 112.40625 C-108.07421875 111.74625 -108.07421875 111.08625 -108.07421875 110.40625 C-109.06421875 110.40625 -110.05421875 110.40625 -111.07421875 110.40625 C-112.47351213 108.76805288 -113.86646475 107.12400676 -115.2265625 105.453125 C-117.9420163 102.44488443 -121.09814603 100.12244345 -124.29296875 97.64453125 C-127.38077864 95.15953817 -130.29395943 92.53723434 -133.19921875 89.84375 C-133.70598145 89.37420898 -134.21274414 88.90466797 -134.73486328 88.42089844 C-135.47905518 87.73108887 -135.47905518 87.73108887 -136.23828125 87.02734375 C-142.52423611 81.14338386 -142.52423611 81.14338386 -149.29296875 75.84375 C-149.88078125 75.369375 -150.46859375 74.895 -151.07421875 74.40625 C-151.07421875 73.74625 -151.07421875 73.08625 -151.07421875 72.40625 C-151.8115625 72.16777344 -152.54890625 71.92929687 -153.30859375 71.68359375 C-156.4836876 70.21713091 -158.05329055 68.60805396 -160.32421875 65.96875 C-161.01 65.18628906 -161.69578125 64.40382813 -162.40234375 63.59765625 C-165.39102229 59.68025283 -165.48124053 56.20910701 -165.07421875 51.40625 C-162.60984779 46.66707508 -159.59683998 43.25382633 -155.07421875 40.40625 C-151.60584566 39.71591571 -148.50063074 39.48312791 -145.07421875 40.40625 C-142.625 42.62109375 -142.625 42.62109375 -140.07421875 45.40625 C-137.20118956 48.02416048 -134.30333973 50.61236805 -131.40234375 53.19921875 C-129.07421875 55.40625 -129.07421875 55.40625 -128.07421875 57.40625 C-126.41142548 58.4126775 -124.74438391 59.41210407 -123.07421875 60.40625 C-122.05402302 61.3856379 -121.0527207 62.38520449 -120.07421875 63.40625 C-119.35234375 63.921875 -118.63046875 64.4375 -117.88671875 64.96875 C-117.28859375 65.443125 -116.69046875 65.9175 -116.07421875 66.40625 C-116.07421875 67.06625 -116.07421875 67.72625 -116.07421875 68.40625 C-114.86765625 68.7775 -114.86765625 68.7775 -113.63671875 69.15625 C-112.79109375 69.56875 -111.94546875 69.98125 -111.07421875 70.40625 C-110.74088542 71.73958333 -110.40755208 73.07291667 -110.07421875 74.40625 C-108.41437077 75.08971682 -106.7458507 75.75213315 -105.07421875 76.40625 C-103.35186525 77.96867068 -101.71565789 79.57646056 -100.11328125 81.26171875 C-96.79498842 83.12428542 -94.7014943 82.35354002 -91.07421875 81.40625 C-88.29505987 79.4115334 -86.02380327 77.00879054 -83.6796875 74.52734375 C-83.00625809 73.8406813 -82.33282867 73.15401886 -81.63899231 72.44654846 C-79.49851871 70.25939589 -77.37946709 68.05289464 -75.26171875 65.84375 C-73.12271785 63.63468872 -70.9795015 61.42995134 -68.83088684 59.23023987 C-67.49674818 57.86206178 -66.16882781 56.48778799 -64.84770203 55.10704041 C-64.24980362 54.48962479 -63.65190521 53.87220917 -63.03588867 53.23608398 C-62.51073166 52.68838852 -61.98557465 52.14069305 -61.44450378 51.57640076 C-60.07421875 50.40625 -60.07421875 50.40625 -58.07421875 50.40625 C-57.85121094 49.84421875 -57.62820313 49.2821875 -57.3984375 48.703125 C-55.67519351 45.71413543 -53.49210938 43.91305733 -50.88671875 41.65625 C-46.93179303 38.16687334 -43.34658863 34.56839202 -39.9453125 30.5390625 C-34.17188368 23.95807684 -27.77595471 17.84660011 -21.12109375 12.16796875 C-17.7765042 9.28932393 -14.53359469 6.29776872 -11.2734375 3.32421875 C-7.22487934 -0.20658419 -5.35293735 -0.86116725 0 0 Z " fill="#29292A" transform="translate(602.07421875,373.59375)"/>
<path d="M0 0 C1.084021 0.00523682 2.16804199 0.01047363 3.28491211 0.01586914 C4.33815674 0.0183667 5.39140137 0.02086426 6.4765625 0.0234375 C7.82484131 0.0325415 9.17312012 0.04164551 10.56225586 0.05102539 C14.83163086 0.07165039 19.10100586 0.09227539 23.49975586 0.11352539 C23.49975586 9.68352539 23.49975586 19.25352539 23.49975586 29.11352539 C34.05975586 29.11352539 44.61975586 29.11352539 55.49975586 29.11352539 C55.49975586 36.04352539 55.49975586 42.97352539 55.49975586 50.11352539 C44.93975586 50.11352539 34.37975586 50.11352539 23.49975586 50.11352539 C23.54641246 58.08713854 23.59680739 66.05915842 23.68354797 74.03218079 C23.7228623 77.74534961 23.75527282 81.45827967 23.77075195 85.17163086 C23.78594276 88.75105966 23.82042959 92.32983863 23.86806488 95.90897751 C23.88285402 97.27159335 23.89079546 98.63430199 23.89163971 99.99699783 C23.66646305 109.9354626 23.66646305 109.9354626 28.49975586 118.11352539 C36.02444386 123.57261276 44.49667496 122.83217911 53.49975586 123.11352539 C53.49975586 130.70352539 53.49975586 138.29352539 53.49975586 146.11352539 C41.26847987 148.55978059 25.64739311 149.35706641 14.49975586 143.11352539 C13.40663086 142.51540039 12.31350586 141.91727539 11.18725586 141.30102539 C2.55220565 134.27249615 -1.97392136 125.15297082 -3.50024414 114.11352539 C-3.58359312 111.92940344 -3.61808911 109.7430805 -3.61376953 107.55737305 C-3.613694 106.27649811 -3.61361847 104.99562317 -3.61354065 103.67593384 C-3.60843519 102.29315145 -3.60321922 100.91036947 -3.59790039 99.52758789 C-3.59603332 98.101268 -3.59461078 96.67494747 -3.59361267 95.24862671 C-3.58981029 91.51025597 -3.57999966 87.77192461 -3.56890869 84.03356934 C-3.55864538 80.21257052 -3.55410454 76.39156529 -3.54907227 72.57055664 C-3.53837517 65.0848596 -3.52079703 57.59920305 -3.50024414 50.11352539 C-10.43024414 50.11352539 -17.36024414 50.11352539 -24.50024414 50.11352539 C-24.50024414 43.18352539 -24.50024414 36.25352539 -24.50024414 29.11352539 C-17.57024414 29.11352539 -10.64024414 29.11352539 -3.50024414 29.11352539 C-3.5118457 27.10387695 -3.52344727 25.09422852 -3.53540039 23.02368164 C-3.54235154 21.08431115 -3.5492681 19.14494036 -3.55517578 17.20556641 C-3.56021471 15.85432153 -3.56704591 14.50308213 -3.57568359 13.15185547 C-3.58776833 11.21332105 -3.59294242 9.27474739 -3.59790039 7.33618164 C-3.60313721 6.16837158 -3.60837402 5.00056152 -3.61376953 3.79736328 C-3.45978744 0.15709415 -3.45978744 0.15709415 0 0 Z " fill="#29292A" transform="translate(533.500244140625,567.886474609375)"/>
<path d="M0 0 C3.80810547 4.72802734 3.80810547 4.72802734 5.53515625 7.17578125 C10.09797384 13.55905803 15.54911119 17.62500274 22 22 C23.65359197 23.65359197 23.12933952 25.63756099 23.14344788 27.84750366 C23.14291916 28.54042511 23.14239044 29.23334656 23.1418457 29.94726562 C23.14705734 31.03770676 23.14705734 31.03770676 23.15237427 32.150177 C23.15974605 33.73528777 23.16508382 35.32040897 23.16866493 36.90553284 C23.17582078 39.42013936 23.19148406 41.93454963 23.21000671 44.44909668 C23.26249277 51.60112687 23.31038155 58.75305516 23.32592773 65.90527344 C23.33605375 70.27681185 23.36550366 74.64786483 23.40724754 79.01921082 C23.4195067 80.68080458 23.42468815 82.34246713 23.42244911 84.00410461 C23.40855863 97.68790412 25.66791108 106.6263833 35 117 C36.64253305 118.36295295 38.29870665 119.7111414 40 121 C40 121.66 40 122.32 40 123 C40.68964844 123.22816406 41.37929688 123.45632813 42.08984375 123.69140625 C45.65535499 125.29468983 48.52813794 127.51769228 51.5625 129.9375 C52.68870813 130.82173427 53.81500801 131.70585168 54.94140625 132.58984375 C55.95074219 133.38519531 56.96007812 134.18054688 58 135 C58.79277344 135.55816406 59.58554687 136.11632812 60.40234375 136.69140625 C60.92957031 137.12324219 61.45679688 137.55507813 62 138 C62 138.66 62 139.32 62 140 C63.00740234 140.31517578 63.00740234 140.31517578 64.03515625 140.63671875 C68.01024953 142.46452844 71.07645488 145.0412295 74.4375 147.8125 C75.08009766 148.33392578 75.72269531 148.85535156 76.38476562 149.39257812 C77.65354089 150.42434359 78.91845826 151.46087389 80.17919922 152.50244141 C81.37992976 153.49000927 82.58979783 154.46658501 83.80908203 155.43115234 C85.24199162 156.57722767 86.62638378 157.78348981 88 159 C88 159.66 88 160.32 88 161 C88.66 161.20625 89.32 161.4125 90 161.625 C92.65919675 162.84379851 94.42031063 164.02358182 96.6875 165.8125 C99.64458451 168.07053639 102.61421387 170.0782403 105.875 171.875 C106.61492187 172.28492188 107.35484375 172.69484375 108.1171875 173.1171875 C112.09112441 174.48801829 112.09112441 174.48801829 121 174 C120.67 182.91 120.34 191.82 120 201 C109.8728951 198.74953224 109.8728951 198.74953224 106.7109375 196.93359375 C106.00598145 196.53575684 105.30102539 196.13791992 104.57470703 195.72802734 C103.48585205 195.08921631 103.48585205 195.08921631 102.375 194.4375 C101.58851074 193.98842285 100.80202148 193.5393457 99.99169922 193.07666016 C94.74255586 190.06395134 89.54792299 186.96035 84.37939453 183.81152344 C78.95669504 180.52563412 73.44681501 177.39905139 67.93041992 174.27392578 C38.9376317 157.84791164 12.32213257 142.3538718 2.57967949 108.21407127 C0.6312856 100.77222967 -0.29120136 93.74007307 -0.22705078 86.05224609 C-0.22734283 85.11444305 -0.22763489 84.17664001 -0.22793579 83.2104187 C-0.22655592 80.14799348 -0.21105869 77.08581958 -0.1953125 74.0234375 C-0.19157759 71.8853875 -0.18873288 69.74733578 -0.18673706 67.60928345 C-0.17913828 62.00994048 -0.15952237 56.41070297 -0.1373291 50.81140137 C-0.11678941 45.08652167 -0.10771804 39.36162476 -0.09765625 33.63671875 C-0.07627267 22.4244331 -0.04218251 11.21222535 0 0 Z " fill="#707070" transform="translate(391,329)"/>
<path d="M0 0 C1.76453519 0.54777513 3.53632201 1.07404213 5.3203125 1.5546875 C17.32341262 4.80941413 28.91109776 10.26861833 39.95703125 15.91796875 C39.95703125 16.57796875 39.95703125 17.23796875 39.95703125 17.91796875 C40.57578125 18.16546875 41.19453125 18.41296875 41.83203125 18.66796875 C44.39955962 20.17827956 44.86593428 21.18295236 45.95703125 23.91796875 C46.1875 26.13671875 46.1875 26.13671875 46.14453125 28.41796875 C46.13486328 29.5471875 46.13486328 29.5471875 46.125 30.69921875 C45.96006688 32.87787018 45.55304031 34.82001686 44.95703125 36.91796875 C40.73045765 35.68603722 37.14981307 34.00414709 33.3515625 31.84643555 C19.14816252 23.807058 3.80218618 19.76563011 -12.0625 16.34716797 C-13.94474269 15.93925591 -15.82216516 15.50928581 -17.69921875 15.078125 C-37.2361864 10.80972229 -57.04241379 10.56542113 -76.96289062 10.60229492 C-79.68311044 10.60693666 -82.4028842 10.5999465 -85.12304688 10.58178711 C-101.35729777 10.47451373 -117.05024485 10.99258959 -133.04296875 13.91796875 C-134.23664063 14.11672607 -135.4303125 14.3154834 -136.66015625 14.52026367 C-157.33686204 18.03817542 -176.54218082 23.08203642 -194.04296875 34.91796875 C-197.04296875 36.91796875 -197.04296875 36.91796875 -200.04296875 36.91796875 C-201.34466236 30.57221242 -202.49434717 24.56155087 -199.29296875 18.73046875 C-190.76833522 10.15873779 -176.21700704 6.80828151 -165.04296875 2.91796875 C-164.1204834 2.59586426 -163.19799805 2.27375977 -162.24755859 1.94189453 C-159.4328388 0.96506376 -156.6141116 0.00107867 -153.79296875 -0.95703125 C-152.92422119 -1.25536865 -152.05547363 -1.55370605 -151.16040039 -1.86108398 C-146.42794338 -3.44256212 -141.99298426 -4.37648605 -137.04296875 -5.08203125 C-135.67341841 -5.53637795 -134.31185111 -6.01516844 -132.95703125 -6.51171875 C-126.92843492 -8.6149552 -120.722322 -9.34672104 -114.41796875 -10.20703125 C-113.22945313 -10.37589844 -112.0409375 -10.54476562 -110.81640625 -10.71875 C-108.53034869 -11.04277825 -106.24350217 -11.3613012 -103.95581055 -11.67358398 C-101.8062429 -11.9750027 -99.66261188 -12.31949553 -97.5234375 -12.6875 C-64.4403788 -16.43765592 -31.39305358 -9.90760216 0 0 Z " fill="#E3E3E3" transform="translate(590.04296875,266.08203125)"/>
<path d="M0 0 C8.69873214 6.50279813 12.20699925 13.28115401 15.5859375 23.41796875 C16.53058451 36.64302694 15.45061608 49.08022512 6.4375 59.55078125 C-0.36655971 66.41225919 -7.56042377 69.53889215 -17.2265625 69.85546875 C-28.02227062 69.55590801 -35.47401535 66.43928424 -43.25 58.91015625 C-51.25493844 49.69147264 -52.91330365 38.707008 -52.734375 26.859375 C-51.73361912 16.10735149 -45.42058369 7.32074632 -37.4140625 0.41796875 C-26.36347492 -6.4004789 -11.01033209 -7.2155089 0 0 Z " fill="#A6A6A6" transform="translate(457.4140625,622.58203125)"/>
<path d="M0 0 C8.16584244 4.3605136 12.61000512 9.13741276 16.7578125 17.47265625 C17.31855469 18.59800781 17.31855469 18.59800781 17.890625 19.74609375 C20.6351238 28.37519357 20.00950383 39.15187092 16.0703125 47.22265625 C15.01582099 49.00303028 13.91710563 50.75867741 12.7578125 52.47265625 C12.36335937 53.08367187 11.96890625 53.6946875 11.5625 54.32421875 C7.113568 60.3909442 -0.06802626 64.59817232 -7.2421875 66.47265625 C-17.14726463 67.66707493 -26.50050703 67.65035363 -35.11328125 62.17578125 C-37.33845811 60.39563977 -39.34410669 58.59989032 -41.2421875 56.47265625 C-41.2421875 55.81265625 -41.2421875 55.15265625 -41.2421875 54.47265625 C-41.9021875 54.47265625 -42.5621875 54.47265625 -43.2421875 54.47265625 C-44.03769142 53.07900625 -44.82840588 51.68262194 -45.6171875 50.28515625 C-46.27847656 49.11919922 -46.27847656 49.11919922 -46.953125 47.9296875 C-51.29198558 39.65955628 -51.85170222 30.66007071 -50.2421875 21.47265625 C-47.30184854 13.23105358 -40.6599649 5.03635549 -33.2421875 0.47265625 C-30.29275844 -0.81200535 -27.35375914 -1.72950487 -24.2421875 -2.52734375 C-15.84778667 -5.32547736 -7.82465992 -3.6671709 0 0 Z " fill="#2B2B2C" transform="translate(528.2421875,158.52734375)"/>
<path d="M0 0 C1.05944824 0.50515137 2.11889648 1.01030273 3.21044922 1.53076172 C37.66207105 18.07477362 78.30972575 39.24218413 99 73 C98.67 73.66 98.34 74.32 98 75 C97.21238281 74.31035156 96.42476562 73.62070313 95.61328125 72.91015625 C83.56015253 62.38428506 83.56015253 62.38428506 70 54 C70 53.34 70 52.68 70 52 C69.2678125 51.72800781 68.535625 51.45601563 67.78125 51.17578125 C65.11229209 50.04747179 62.91601577 48.77804372 60.5 47.1875 C59.53578125 46.56617188 58.5715625 45.94484375 57.578125 45.3046875 C57.02189453 44.94600586 56.46566406 44.58732422 55.89257812 44.21777344 C40.98927967 34.62829296 25.8566305 25.91930141 10 18 C8.97825684 17.48518066 7.95651367 16.97036133 6.90380859 16.43994141 C-29.4307857 -1.79228936 -65.32202515 -16.81206533 -105.578125 -3.50390625 C-107.05289821 -3.00500653 -108.52680497 -2.50354083 -110 -2 C-110.83982422 -1.71495605 -111.67964844 -1.42991211 -112.54492188 -1.13623047 C-133.8788728 6.17262309 -153.34189044 16.02291162 -173 27 C-174.30198298 27.71893178 -175.60405486 28.43770258 -176.90625 29.15625 C-191.98347214 37.59396147 -206.099497 47.32802502 -220.01269531 57.54443359 C-221.79131448 58.84715196 -223.57654062 60.13967226 -225.3671875 61.42578125 C-232.35961408 66.45691745 -238.6310967 71.20991641 -244 78 C-244.33 77.34 -244.66 76.68 -245 76 C-241.9323043 69.30684574 -237.0243643 64.29920132 -232 59 C-231.13181641 58.06994141 -231.13181641 58.06994141 -230.24609375 57.12109375 C-225.24287456 51.92497936 -219.6435696 47.47644395 -214 43 C-213.05640625 42.23945313 -212.1128125 41.47890625 -211.140625 40.6953125 C-194.49960715 27.54632171 -176.37726579 16.52436605 -158 6 C-157.16114258 5.51402344 -156.32228516 5.02804688 -155.45800781 4.52734375 C-100.5100197 -27.21749944 -56.66695408 -27.08942206 0 0 Z " fill="#E3E3E3" transform="translate(585,137)"/>
<path d="M0 0 C8.91 0 17.82 0 27 0 C28.59183899 1.59183899 28.12599125 3.23445499 28.12698364 5.44140625 C28.12980347 6.40054932 28.13262329 7.35969238 28.13552856 8.34790039 C28.13350433 9.40871826 28.1314801 10.46953613 28.12939453 11.5625 C28.13114685 12.67294678 28.13289917 13.78339355 28.13470459 14.92749023 C28.13912572 18.61834246 28.13618419 22.30914724 28.1328125 26 C28.13348546 28.55208343 28.13445542 31.10416679 28.13571167 33.65625 C28.137189 39.01302762 28.13512756 44.36978805 28.13037109 49.7265625 C28.12492851 55.92783715 28.12669118 62.12907893 28.1321975 68.33035278 C28.13727437 74.28534215 28.13674707 80.24032127 28.13381577 86.1953125 C28.13314624 88.73437505 28.13397582 91.27343842 28.13629532 93.8125 C28.1388203 97.35418964 28.13498342 100.89581517 28.12939453 104.4375 C28.13141876 105.49831787 28.13344299 106.55913574 28.13552856 107.65209961 C28.13129883 109.09081421 28.13129883 109.09081421 28.12698364 110.55859375 C28.12660662 111.39704834 28.12622959 112.23550293 28.12584114 113.09936523 C28 115 28 115 27 116 C18.09 116 9.18 116 0 116 C0 77.72 0 39.44 0 0 Z " fill="#2B2B2C" transform="translate(737,597)"/>
<path d="M0 0 C8.16584244 4.3605136 12.61000512 9.13741276 16.7578125 17.47265625 C17.31855469 18.59800781 17.31855469 18.59800781 17.890625 19.74609375 C20.6351238 28.37519357 20.00950383 39.15187092 16.0703125 47.22265625 C15.01582099 49.00303028 13.91710563 50.75867741 12.7578125 52.47265625 C12.36335937 53.08367187 11.96890625 53.6946875 11.5625 54.32421875 C7.113568 60.3909442 -0.06802626 64.59817232 -7.2421875 66.47265625 C-17.14726463 67.66707493 -26.50050703 67.65035363 -35.11328125 62.17578125 C-37.33845811 60.39563977 -39.34410669 58.59989032 -41.2421875 56.47265625 C-41.2421875 55.81265625 -41.2421875 55.15265625 -41.2421875 54.47265625 C-41.9021875 54.47265625 -42.5621875 54.47265625 -43.2421875 54.47265625 C-44.03769142 53.07900625 -44.82840588 51.68262194 -45.6171875 50.28515625 C-46.27847656 49.11919922 -46.27847656 49.11919922 -46.953125 47.9296875 C-51.29198558 39.65955628 -51.85170222 30.66007071 -50.2421875 21.47265625 C-47.30184854 13.23105358 -40.6599649 5.03635549 -33.2421875 0.47265625 C-30.29275844 -0.81200535 -27.35375914 -1.72950487 -24.2421875 -2.52734375 C-15.84778667 -5.32547736 -7.82465992 -3.6671709 0 0 Z M-35.83984375 14.73828125 C-41.36072278 21.56633219 -41.88038873 27.90915614 -41.2421875 36.47265625 C-39.80777192 43.72379643 -36.8847445 48.99685579 -30.7421875 53.171875 C-23.07945396 57.54330145 -15.98751428 59.03804887 -7.2421875 57.47265625 C0.83521289 54.05081805 6.39776696 47.4562742 9.7578125 39.47265625 C10.24138338 36.69142085 10.3287783 33.97958285 10.3203125 31.16015625 C10.3200708 30.41121094 10.3198291 29.66226563 10.31958008 28.890625 C10.14495593 23.24383162 8.88557568 19.46385836 5.36328125 14.94140625 C3.71299271 13.23158649 3.71299271 13.23158649 0.7578125 12.47265625 C0.7578125 11.81265625 0.7578125 11.15265625 0.7578125 10.47265625 C-0.5117405 9.82430971 -1.78288456 9.1790781 -3.0546875 8.53515625 C-3.76238281 8.17550781 -4.47007812 7.81585938 -5.19921875 7.4453125 C-16.10463608 2.25324956 -28.0207426 6.12807105 -35.83984375 14.73828125 Z " fill="#E2E2E2" transform="translate(528.2421875,158.52734375)"/>
<path d="M0 0 C2.23587229 0.01846607 4.47133415 0.02050785 6.70727539 0.02026367 C17.63179364 0.05806317 17.63179364 0.05806317 18.77954102 1.20581055 C19.43065825 9.27966421 18.05847107 16.61021168 13.27172852 23.3190918 C6.82999537 30.31511361 -1.11634226 32.67567634 -10.36889648 33.47924805 C-17.68306329 33.70947606 -22.72929709 33.29221849 -28.22045898 28.20581055 C-31.5256677 24.65271118 -32.49296159 21.94770933 -32.72045898 17.20581055 C-32.5083348 12.49665362 -31.44435062 9.7690592 -28.22045898 6.20581055 C-19.85107466 -0.64186754 -10.23000561 -0.08776718 0 0 Z " fill="#A5A5A5" transform="translate(659.220458984375,662.794189453125)"/>
<path d="M0 0 C0.74900574 0.00141495 1.49801147 0.0028299 2.26971436 0.00428772 C4.65380912 0.00986966 7.03780878 0.0224188 9.421875 0.03515625 C11.04166531 0.04017359 12.66145709 0.04473609 14.28125 0.04882812 C18.24482812 0.05983317 22.20833545 0.07708534 26.171875 0.09765625 C26.21265629 1.99851734 26.24159606 3.8996346 26.265625 5.80078125 C26.29172852 7.38874512 26.29172852 7.38874512 26.31835938 9.00878906 C25.95311348 16.71060746 21.96647087 22.26085932 16.421875 27.3671875 C8.4750855 33.47904123 -0.06539693 34.04018423 -9.828125 33.09765625 C-16.017475 31.92565101 -19.34287375 29.16711261 -22.828125 24.09765625 C-24.44528966 19.24616228 -25.04738597 14.54039708 -22.69921875 9.8359375 C-16.78559899 1.48275659 -9.7622757 -0.06968392 0 0 Z " fill="#A5A5A5" transform="translate(299.828125,662.90234375)"/>
<path d="M0 0 C5.47722589 2.32608141 9.39304673 5.56884736 12 11 C12.85827651 16.79336645 11.42425317 21.34341973 8 26 C4.74415256 28.94262667 1.36209114 30.22948272 -3 30.5 C-8.581694 30.18630014 -12.17598144 27.49663061 -16.4375 24 C-18.96404332 19.14903682 -18.83968103 14.34210865 -18 9 C-14.64343396 1.92920104 -7.57879533 -1.47947017 0 0 Z " fill="#2A2A2B" transform="translate(754,552)"/>
<path d="M0 0 C2.5 0.0625 2.5 0.0625 5 1 C6.3125 3.5625 6.3125 3.5625 7 6 C8.093125 5.979375 9.18625 5.95875 10.3125 5.9375 C14 6 14 6 17 7 C16.6875 9.375 16.6875 9.375 16 12 C15.01 12.66 14.02 13.32 13 14 C12.6258059 18.7709748 13.23118515 23.29100905 14 28 C8.375 28.25 8.375 28.25 5 26 C4.34 26.33 3.68 26.66 3 27 C0.95944995 27.07065617 -1.08334257 27.08421976 -3.125 27.0625 C-6.033125 27.0315625 -6.033125 27.0315625 -9 27 C-8.67 22.05 -8.34 17.1 -8 12 C-9.32 11.67 -10.64 11.34 -12 11 C-12.33 9.68 -12.66 8.36 -13 7 C-10.03 7 -7.06 7 -4 7 C-3.71125 6.21625 -3.4225 5.4325 -3.125 4.625 C-2 2 -2 2 0 0 Z " fill="#E1E1E1" transform="translate(511,175)"/>
</svg>
